<svg width="151" height="56" viewBox="0 0 151 56" fill="none" xmlns="http://www.w3.org/2000/svg">
<path d="M15.1328 18.3525C13.804 18.9958 12.069 19.3174 9.92773 19.3174C7.13477 19.3174 4.93848 18.4964 3.33887 16.8545C1.73926 15.2126 0.939453 13.0247 0.939453 10.291C0.939453 7.37956 1.83659 5.01823 3.63086 3.20703C5.43359 1.39583 7.76953 0.490234 10.6387 0.490234C12.416 0.490234 13.9141 0.714518 15.1328 1.16309V5.11133C13.9141 4.38346 12.526 4.01953 10.9688 4.01953C9.25911 4.01953 7.87956 4.55697 6.83008 5.63184C5.7806 6.70671 5.25586 8.16243 5.25586 9.99902C5.25586 11.7594 5.75098 13.1644 6.74121 14.2139C7.73145 15.2549 9.06445 15.7754 10.7402 15.7754C12.3398 15.7754 13.804 15.3861 15.1328 14.6074V18.3525ZM30.2656 19H26.2666V17.0195H26.2031C25.2129 18.5514 23.8883 19.3174 22.2295 19.3174C19.2165 19.3174 17.71 17.4935 17.71 13.8457V6H21.709V13.4902C21.709 15.3268 22.4368 16.2451 23.8926 16.2451C24.612 16.2451 25.1875 15.9954 25.6191 15.4961C26.0508 14.9883 26.2666 14.3027 26.2666 13.4395V6H30.2656V19ZM32.8047 18.6572V15.4072C33.4648 15.805 34.1208 16.1012 34.7725 16.2959C35.4326 16.4906 36.0547 16.5879 36.6387 16.5879C37.3496 16.5879 37.9082 16.4906 38.3145 16.2959C38.7292 16.1012 38.9365 15.805 38.9365 15.4072C38.9365 15.1533 38.8434 14.9417 38.6572 14.7725C38.471 14.6032 38.2298 14.4551 37.9336 14.3281C37.6458 14.2012 37.3285 14.0869 36.9814 13.9854C36.6344 13.8838 36.3001 13.7695 35.9785 13.6426C35.4622 13.4479 35.0052 13.2406 34.6074 13.0205C34.2181 12.792 33.888 12.5296 33.6172 12.2334C33.3548 11.9372 33.1517 11.5944 33.0078 11.2051C32.8724 10.8158 32.8047 10.3545 32.8047 9.82129C32.8047 9.09342 32.9613 8.46712 33.2744 7.94238C33.596 7.41764 34.0192 6.99023 34.5439 6.66016C35.0771 6.32161 35.6823 6.07617 36.3594 5.92383C37.0449 5.76302 37.7559 5.68262 38.4922 5.68262C39.0677 5.68262 39.6517 5.72917 40.2441 5.82227C40.8366 5.9069 41.4206 6.03385 41.9961 6.20312V9.30078C41.4883 9.00456 40.9424 8.78451 40.3584 8.64062C39.7829 8.48828 39.2158 8.41211 38.6572 8.41211C38.3949 8.41211 38.1452 8.4375 37.9082 8.48828C37.6797 8.5306 37.4766 8.59831 37.2988 8.69141C37.1211 8.77604 36.9814 8.8903 36.8799 9.03418C36.7783 9.1696 36.7275 9.32617 36.7275 9.50391C36.7275 9.74089 36.8037 9.94401 36.9561 10.1133C37.1084 10.2826 37.3073 10.4307 37.5527 10.5576C37.7982 10.6761 38.069 10.7861 38.3652 10.8877C38.6699 10.9808 38.9704 11.0781 39.2666 11.1797C39.7998 11.3659 40.2822 11.569 40.7139 11.7891C41.1455 12.0091 41.5137 12.2673 41.8184 12.5635C42.1315 12.8597 42.3685 13.2067 42.5293 13.6045C42.6986 14.0023 42.7832 14.4762 42.7832 15.0264C42.7832 15.7965 42.6139 16.4567 42.2754 17.0068C41.9453 17.5485 41.501 17.9928 40.9424 18.3398C40.3923 18.6784 39.7533 18.9238 39.0254 19.0762C38.306 19.237 37.557 19.3174 36.7783 19.3174C35.348 19.3174 34.0234 19.0973 32.8047 18.6572ZM52.9648 18.8477C52.3724 19.1608 51.4795 19.3174 50.2861 19.3174C47.4593 19.3174 46.0459 17.849 46.0459 14.9121V8.95801H43.9385V6H46.0459V3.19434L50.0449 2.05176V6H52.9648V8.95801H50.0449V14.2139C50.0449 15.568 50.5824 16.2451 51.6572 16.2451C52.0804 16.2451 52.5163 16.1224 52.9648 15.877V18.8477ZM61.3311 19.3174C59.1644 19.3174 57.459 18.7122 56.2148 17.502C54.9792 16.2832 54.3613 14.6328 54.3613 12.5508C54.3613 10.401 55.0046 8.72103 56.291 7.51074C57.5775 6.29199 59.3167 5.68262 61.5088 5.68262C63.667 5.68262 65.3597 6.29199 66.5869 7.51074C67.8141 8.72103 68.4277 10.3249 68.4277 12.3223C68.4277 14.4805 67.793 16.1859 66.5234 17.4385C65.2624 18.6911 63.5316 19.3174 61.3311 19.3174ZM61.4326 8.75488C60.4847 8.75488 59.7484 9.08073 59.2236 9.73242C58.6989 10.3841 58.4365 11.3066 58.4365 12.5C58.4365 14.9967 59.4437 16.2451 61.458 16.2451C63.3792 16.2451 64.3398 14.9629 64.3398 12.3984C64.3398 9.9694 63.3708 8.75488 61.4326 8.75488ZM91.6729 19H87.6738V11.5859C87.6738 9.69857 86.9798 8.75488 85.5918 8.75488C84.9316 8.75488 84.3942 9.03841 83.9795 9.60547C83.5648 10.1725 83.3574 10.8792 83.3574 11.7256V19H79.3457V11.5098C79.3457 9.67318 78.6644 8.75488 77.3018 8.75488C76.6162 8.75488 76.0661 9.02572 75.6514 9.56738C75.2451 10.109 75.042 10.8454 75.042 11.7764V19H71.0303V6H75.042V8.03125H75.0928C75.5075 7.33724 76.0872 6.77441 76.832 6.34277C77.5853 5.90267 78.4062 5.68262 79.2949 5.68262C81.1315 5.68262 82.3883 6.49089 83.0654 8.10742C84.0557 6.49089 85.5114 5.68262 87.4326 5.68262C90.2594 5.68262 91.6729 7.42611 91.6729 10.9131V19ZM106.526 13.6426H98.0459C98.1813 15.5299 99.3704 16.4736 101.613 16.4736C103.044 16.4736 104.3 16.1351 105.384 15.458V18.3525C104.182 18.9958 102.62 19.3174 100.699 19.3174C98.6003 19.3174 96.971 18.7376 95.8115 17.5781C94.652 16.4102 94.0723 14.7852 94.0723 12.7031C94.0723 10.5449 94.6986 8.83529 95.9512 7.57422C97.2038 6.31315 98.7441 5.68262 100.572 5.68262C102.468 5.68262 103.932 6.24544 104.965 7.37109C106.006 8.49674 106.526 10.0244 106.526 11.9541V13.6426ZM102.807 11.1797C102.807 9.31771 102.053 8.38672 100.547 8.38672C99.9036 8.38672 99.3451 8.65332 98.8711 9.18652C98.4056 9.71973 98.1221 10.3841 98.0205 11.1797H102.807ZM117.394 9.61816C116.911 9.35579 116.348 9.22461 115.705 9.22461C114.833 9.22461 114.152 9.54622 113.661 10.1895C113.17 10.8242 112.925 11.6917 112.925 12.792V19H108.913V6H112.925V8.41211H112.976C113.61 6.65169 114.753 5.77148 116.403 5.77148C116.826 5.77148 117.157 5.82227 117.394 5.92383V9.61816ZM14.8662 40.1338H9.67383V55H5.56055V40.1338H0.393555V36.7949H14.8662V40.1338ZM26.2666 49.6426H17.7861C17.9215 51.5299 19.1107 52.4736 21.3535 52.4736C22.7839 52.4736 24.0407 52.1351 25.124 51.458V54.3525C23.9222 54.9958 22.3607 55.3174 20.4395 55.3174C18.3405 55.3174 16.7113 54.7376 15.5518 53.5781C14.3923 52.4102 13.8125 50.7852 13.8125 48.7031C13.8125 46.5449 14.4388 44.8353 15.6914 43.5742C16.944 42.3132 18.4844 41.6826 20.3125 41.6826C22.2083 41.6826 23.6725 42.2454 24.7051 43.3711C25.7461 44.4967 26.2666 46.0244 26.2666 47.9541V49.6426ZM22.5469 47.1797C22.5469 45.3177 21.7936 44.3867 20.2871 44.3867C19.6439 44.3867 19.0853 44.6533 18.6113 45.1865C18.1458 45.7197 17.8623 46.3841 17.7607 47.1797H22.5469ZM27.8027 54.6572V51.4072C28.4629 51.805 29.1188 52.1012 29.7705 52.2959C30.4307 52.4906 31.0527 52.5879 31.6367 52.5879C32.3477 52.5879 32.9062 52.4906 33.3125 52.2959C33.7272 52.1012 33.9346 51.805 33.9346 51.4072C33.9346 51.1533 33.8415 50.9417 33.6553 50.7725C33.4691 50.6032 33.2279 50.4551 32.9316 50.3281C32.6439 50.2012 32.3265 50.0869 31.9795 49.9854C31.6325 49.8838 31.2982 49.7695 30.9766 49.6426C30.4603 49.4479 30.0033 49.2406 29.6055 49.0205C29.2161 48.792 28.8861 48.5296 28.6152 48.2334C28.3529 47.9372 28.1497 47.5944 28.0059 47.2051C27.8704 46.8158 27.8027 46.3545 27.8027 45.8213C27.8027 45.0934 27.9593 44.4671 28.2725 43.9424C28.5941 43.4176 29.0173 42.9902 29.542 42.6602C30.0752 42.3216 30.6803 42.0762 31.3574 41.9238C32.043 41.763 32.7539 41.6826 33.4902 41.6826C34.0658 41.6826 34.6497 41.7292 35.2422 41.8223C35.8346 41.9069 36.4186 42.0339 36.9941 42.2031V45.3008C36.4863 45.0046 35.9404 44.7845 35.3564 44.6406C34.7809 44.4883 34.2139 44.4121 33.6553 44.4121C33.3929 44.4121 33.1432 44.4375 32.9062 44.4883C32.6777 44.5306 32.4746 44.5983 32.2969 44.6914C32.1191 44.776 31.9795 44.8903 31.8779 45.0342C31.7764 45.1696 31.7256 45.3262 31.7256 45.5039C31.7256 45.7409 31.8018 45.944 31.9541 46.1133C32.1064 46.2826 32.3053 46.4307 32.5508 46.5576C32.7962 46.6761 33.0671 46.7861 33.3633 46.8877C33.668 46.9808 33.9684 47.0781 34.2646 47.1797C34.7979 47.3659 35.2803 47.569 35.7119 47.7891C36.1436 48.0091 36.5117 48.2673 36.8164 48.5635C37.1296 48.8597 37.3665 49.2067 37.5273 49.6045C37.6966 50.0023 37.7812 50.4762 37.7812 51.0264C37.7812 51.7965 37.612 52.4567 37.2734 53.0068C36.9434 53.5485 36.499 53.9928 35.9404 54.3398C35.3903 54.6784 34.7513 54.9238 34.0234 55.0762C33.304 55.237 32.555 55.3174 31.7764 55.3174C30.346 55.3174 29.0215 55.0973 27.8027 54.6572ZM47.9629 54.8477C47.3704 55.1608 46.4775 55.3174 45.2842 55.3174C42.4574 55.3174 41.0439 53.849 41.0439 50.9121V44.958H38.9365V42H41.0439V39.1943L45.043 38.0518V42H47.9629V44.958H45.043V50.2139C45.043 51.568 45.5804 52.2451 46.6553 52.2451C47.0785 52.2451 47.5143 52.1224 47.9629 51.877V54.8477ZM52.2666 39.9434C51.5895 39.9434 51.0352 39.7445 50.6035 39.3467C50.1719 38.9404 49.9561 38.4453 49.9561 37.8613C49.9561 37.2604 50.1719 36.7695 50.6035 36.3887C51.0352 36.0078 51.5895 35.8174 52.2666 35.8174C52.9521 35.8174 53.5065 36.0078 53.9297 36.3887C54.3613 36.7695 54.5771 37.2604 54.5771 37.8613C54.5771 38.4707 54.3613 38.9701 53.9297 39.3594C53.5065 39.7487 52.9521 39.9434 52.2666 39.9434ZM54.2471 55H50.2354V42H54.2471V55ZM78.2666 55H74.2676V47.5859C74.2676 45.6986 73.5736 44.7549 72.1855 44.7549C71.5254 44.7549 70.988 45.0384 70.5732 45.6055C70.1585 46.1725 69.9512 46.8792 69.9512 47.7256V55H65.9395V47.5098C65.9395 45.6732 65.2581 44.7549 63.8955 44.7549C63.21 44.7549 62.6598 45.0257 62.2451 45.5674C61.8389 46.109 61.6357 46.8454 61.6357 47.7764V55H57.624V42H61.6357V44.0312H61.6865C62.1012 43.3372 62.681 42.7744 63.4258 42.3428C64.179 41.9027 65 41.6826 65.8887 41.6826C67.7253 41.6826 68.9821 42.4909 69.6592 44.1074C70.6494 42.4909 72.1051 41.6826 74.0264 41.6826C76.8532 41.6826 78.2666 43.4261 78.2666 46.9131V55ZM87.6357 55.3174C85.4691 55.3174 83.7637 54.7122 82.5195 53.502C81.2839 52.2832 80.666 50.6328 80.666 48.5508C80.666 46.401 81.3092 44.721 82.5957 43.5107C83.8822 42.292 85.6214 41.6826 87.8135 41.6826C89.9717 41.6826 91.6644 42.292 92.8916 43.5107C94.1188 44.721 94.7324 46.3249 94.7324 48.3223C94.7324 50.4805 94.0977 52.1859 92.8281 53.4385C91.5671 54.6911 89.8363 55.3174 87.6357 55.3174ZM87.7373 44.7549C86.7894 44.7549 86.0531 45.0807 85.5283 45.7324C85.0036 46.3841 84.7412 47.3066 84.7412 48.5C84.7412 50.9967 85.7484 52.2451 87.7627 52.2451C89.6839 52.2451 90.6445 50.9629 90.6445 48.3984C90.6445 45.9694 89.6755 44.7549 87.7373 44.7549ZM109.891 55H105.892V47.7764C105.892 45.762 105.172 44.7549 103.733 44.7549C103.039 44.7549 102.468 45.0215 102.02 45.5547C101.571 46.0879 101.347 46.765 101.347 47.5859V55H97.335V42H101.347V44.0566H101.397C102.354 42.474 103.746 41.6826 105.574 41.6826C108.452 41.6826 109.891 43.4684 109.891 47.04V55ZM115.108 39.9434C114.431 39.9434 113.877 39.7445 113.445 39.3467C113.014 38.9404 112.798 38.4453 112.798 37.8613C112.798 37.2604 113.014 36.7695 113.445 36.3887C113.877 36.0078 114.431 35.8174 115.108 35.8174C115.794 35.8174 116.348 36.0078 116.771 36.3887C117.203 36.7695 117.419 37.2604 117.419 37.8613C117.419 38.4707 117.203 38.9701 116.771 39.3594C116.348 39.7487 115.794 39.9434 115.108 39.9434ZM117.089 55H113.077V42H117.089V55ZM131.282 55H127.486V53.1338H127.436C126.564 54.5895 125.273 55.3174 123.563 55.3174C122.302 55.3174 121.308 54.9619 120.58 54.251C119.861 53.5316 119.501 52.5752 119.501 51.3818C119.501 48.8597 120.995 47.404 123.982 47.0146L127.512 46.5449C127.512 45.123 126.742 44.4121 125.201 44.4121C123.652 44.4121 122.18 44.8734 120.783 45.7959V42.7744C121.342 42.4867 122.104 42.2327 123.068 42.0127C124.042 41.7926 124.926 41.6826 125.722 41.6826C129.429 41.6826 131.282 43.5319 131.282 47.2305V55ZM127.512 49.7188V48.8428L125.15 49.1475C123.847 49.3167 123.195 49.9049 123.195 50.9121C123.195 51.3691 123.352 51.7458 123.665 52.042C123.987 52.3298 124.418 52.4736 124.96 52.4736C125.713 52.4736 126.327 52.2155 126.801 51.6992C127.275 51.1745 127.512 50.5143 127.512 49.7188ZM138.468 55H134.456V35.7539H138.468V55ZM140.994 54.6572V51.4072C141.654 51.805 142.31 52.1012 142.962 52.2959C143.622 52.4906 144.244 52.5879 144.828 52.5879C145.539 52.5879 146.098 52.4906 146.504 52.2959C146.919 52.1012 147.126 51.805 147.126 51.4072C147.126 51.1533 147.033 50.9417 146.847 50.7725C146.66 50.6032 146.419 50.4551 146.123 50.3281C145.835 50.2012 145.518 50.0869 145.171 49.9854C144.824 49.8838 144.49 49.7695 144.168 49.6426C143.652 49.4479 143.195 49.2406 142.797 49.0205C142.408 48.792 142.077 48.5296 141.807 48.2334C141.544 47.9372 141.341 47.5944 141.197 47.2051C141.062 46.8158 140.994 46.3545 140.994 45.8213C140.994 45.0934 141.151 44.4671 141.464 43.9424C141.785 43.4176 142.209 42.9902 142.733 42.6602C143.267 42.3216 143.872 42.0762 144.549 41.9238C145.234 41.763 145.945 41.6826 146.682 41.6826C147.257 41.6826 147.841 41.7292 148.434 41.8223C149.026 41.9069 149.61 42.0339 150.186 42.2031V45.3008C149.678 45.0046 149.132 44.7845 148.548 44.6406C147.972 44.4883 147.405 44.4121 146.847 44.4121C146.584 44.4121 146.335 44.4375 146.098 44.4883C145.869 44.5306 145.666 44.5983 145.488 44.6914C145.311 44.776 145.171 44.8903 145.069 45.0342C144.968 45.1696 144.917 45.3262 144.917 45.5039C144.917 45.7409 144.993 45.944 145.146 46.1133C145.298 46.2826 145.497 46.4307 145.742 46.5576C145.988 46.6761 146.258 46.7861 146.555 46.8877C146.859 46.9808 147.16 47.0781 147.456 47.1797C147.989 47.3659 148.472 47.569 148.903 47.7891C149.335 48.0091 149.703 48.2673 150.008 48.5635C150.321 48.8597 150.558 49.2067 150.719 49.6045C150.888 50.0023 150.973 50.4762 150.973 51.0264C150.973 51.7965 150.803 52.4567 150.465 53.0068C150.135 53.5485 149.69 53.9928 149.132 54.3398C148.582 54.6784 147.943 54.9238 147.215 55.0762C146.495 55.237 145.746 55.3174 144.968 55.3174C143.537 55.3174 142.213 55.0973 140.994 54.6572Z" fill="white"/>
</svg>
