<svg width="95" height="24" viewBox="0 0 95 24" fill="none" xmlns="http://www.w3.org/2000/svg">
<path d="M0.148438 17.3555V13.6055C0.828125 14.1758 1.56641 14.6055 2.36328 14.8945C3.16016 15.1758 3.96484 15.3164 4.77734 15.3164C5.25391 15.3164 5.66797 15.2734 6.01953 15.1875C6.37891 15.1016 6.67578 14.9844 6.91016 14.8359C7.15234 14.6797 7.33203 14.5 7.44922 14.2969C7.56641 14.0859 7.625 13.8594 7.625 13.6172C7.625 13.2891 7.53125 12.9961 7.34375 12.7383C7.15625 12.4805 6.89844 12.2422 6.57031 12.0234C6.25 11.8047 5.86719 11.5938 5.42188 11.3906C4.97656 11.1875 4.49609 10.9805 3.98047 10.7695C2.66797 10.2227 1.6875 9.55469 1.03906 8.76562C0.398438 7.97656 0.078125 7.02344 0.078125 5.90625C0.078125 5.03125 0.253906 4.28125 0.605469 3.65625C0.957031 3.02344 1.43359 2.50391 2.03516 2.09766C2.64453 1.69141 3.34766 1.39453 4.14453 1.20703C4.94141 1.01172 5.78516 0.914062 6.67578 0.914062C7.55078 0.914062 8.32422 0.96875 8.99609 1.07812C9.67578 1.17969 10.3008 1.33984 10.8711 1.55859V5.0625C10.5898 4.86719 10.2812 4.69531 9.94531 4.54688C9.61719 4.39844 9.27734 4.27734 8.92578 4.18359C8.57422 4.08203 8.22266 4.00781 7.87109 3.96094C7.52734 3.91406 7.19922 3.89062 6.88672 3.89062C6.45703 3.89062 6.06641 3.93359 5.71484 4.01953C5.36328 4.09766 5.06641 4.21094 4.82422 4.35938C4.58203 4.50781 4.39453 4.6875 4.26172 4.89844C4.12891 5.10156 4.0625 5.33203 4.0625 5.58984C4.0625 5.87109 4.13672 6.125 4.28516 6.35156C4.43359 6.57031 4.64453 6.78125 4.91797 6.98438C5.19141 7.17969 5.52344 7.375 5.91406 7.57031C6.30469 7.75781 6.74609 7.95312 7.23828 8.15625C7.91016 8.4375 8.51172 8.73828 9.04297 9.05859C9.58203 9.37109 10.043 9.72656 10.4258 10.125C10.8086 10.5234 11.1016 10.9805 11.3047 11.4961C11.5078 12.0039 11.6094 12.5977 11.6094 13.2773C11.6094 14.2148 11.4297 15.0039 11.0703 15.6445C10.7188 16.2773 10.2383 16.793 9.62891 17.1914C9.01953 17.582 8.30859 17.8633 7.49609 18.0352C6.69141 18.207 5.83984 18.293 4.94141 18.293C4.01953 18.293 3.14062 18.2148 2.30469 18.0586C1.47656 17.9023 0.757812 17.668 0.148438 17.3555ZM19.7305 18.293C17.7305 18.293 16.1562 17.7344 15.0078 16.6172C13.8672 15.4922 13.2969 13.9688 13.2969 12.0469C13.2969 10.0625 13.8906 8.51172 15.0781 7.39453C16.2656 6.26953 17.8711 5.70703 19.8945 5.70703C21.8867 5.70703 23.4492 6.26953 24.582 7.39453C25.7148 8.51172 26.2812 9.99219 26.2812 11.8359C26.2812 13.8281 25.6953 15.4023 24.5234 16.5586C23.3594 17.7148 21.7617 18.293 19.7305 18.293ZM19.8242 8.54297C18.9492 8.54297 18.2695 8.84375 17.7852 9.44531C17.3008 10.0469 17.0586 10.8984 17.0586 12C17.0586 14.3047 17.9883 15.457 19.8477 15.457C21.6211 15.457 22.5078 14.2734 22.5078 11.9062C22.5078 9.66406 21.6133 8.54297 19.8242 8.54297ZM37.7773 17.5664C36.9414 18.0508 35.7344 18.293 34.1562 18.293C32.3125 18.293 30.8203 17.7344 29.6797 16.6172C28.5391 15.5 27.9688 14.0586 27.9688 12.293C27.9688 10.2539 28.5781 8.64844 29.7969 7.47656C31.0234 6.29688 32.6602 5.70703 34.707 5.70703C36.1211 5.70703 37.1445 5.89453 37.7773 6.26953V9.41016C37.0039 8.83203 36.1406 8.54297 35.1875 8.54297C34.125 8.54297 33.2812 8.85547 32.6562 9.48047C32.0391 10.0977 31.7305 10.9531 31.7305 12.0469C31.7305 13.1094 32.0273 13.9453 32.6211 14.5547C33.2148 15.1562 34.0312 15.457 35.0703 15.457C35.9922 15.457 36.8945 15.168 37.7773 14.5898V17.5664ZM42.0898 4.10156C41.4648 4.10156 40.9531 3.91797 40.5547 3.55078C40.1562 3.17578 39.957 2.71875 39.957 2.17969C39.957 1.625 40.1562 1.17188 40.5547 0.820312C40.9531 0.46875 41.4648 0.292969 42.0898 0.292969C42.7227 0.292969 43.2344 0.46875 43.625 0.820312C44.0234 1.17188 44.2227 1.625 44.2227 2.17969C44.2227 2.74219 44.0234 3.20312 43.625 3.5625C43.2344 3.92188 42.7227 4.10156 42.0898 4.10156ZM43.918 18H40.2148V6H43.918V18ZM57.0195 18H53.5156V16.2773H53.4688C52.6641 17.6211 51.4727 18.293 49.8945 18.293C48.7305 18.293 47.8125 17.9648 47.1406 17.3086C46.4766 16.6445 46.1445 15.7617 46.1445 14.6602C46.1445 12.332 47.5234 10.9883 50.2812 10.6289L53.5391 10.1953C53.5391 8.88281 52.8281 8.22656 51.4062 8.22656C49.9766 8.22656 48.6172 8.65234 47.3281 9.50391V6.71484C47.8438 6.44922 48.5469 6.21484 49.4375 6.01172C50.3359 5.80859 51.1523 5.70703 51.8867 5.70703C55.3086 5.70703 57.0195 7.41406 57.0195 10.8281V18ZM53.5391 13.125V12.3164L51.3594 12.5977C50.1562 12.7539 49.5547 13.2969 49.5547 14.2266C49.5547 14.6484 49.6992 14.9961 49.9883 15.2695C50.2852 15.5352 50.6836 15.668 51.1836 15.668C51.8789 15.668 52.4453 15.4297 52.8828 14.9531C53.3203 14.4688 53.5391 13.8594 53.5391 13.125ZM63.6523 18H59.9492V0.234375H63.6523V18ZM68.6445 4.10156C68.0195 4.10156 67.5078 3.91797 67.1094 3.55078C66.7109 3.17578 66.5117 2.71875 66.5117 2.17969C66.5117 1.625 66.7109 1.17188 67.1094 0.820312C67.5078 0.46875 68.0195 0.292969 68.6445 0.292969C69.2773 0.292969 69.7891 0.46875 70.1797 0.820312C70.5781 1.17188 70.7773 1.625 70.7773 2.17969C70.7773 2.74219 70.5781 3.20312 70.1797 3.5625C69.7891 3.92188 69.2773 4.10156 68.6445 4.10156ZM70.4727 18H66.7695V6H70.4727V18ZM80.8438 17.8594C80.2969 18.1484 79.4727 18.293 78.3711 18.293C75.7617 18.293 74.457 16.9375 74.457 14.2266V8.73047H72.5117V6H74.457V3.41016L78.1484 2.35547V6H80.8438V8.73047H78.1484V13.582C78.1484 14.832 78.6445 15.457 79.6367 15.457C80.0273 15.457 80.4297 15.3438 80.8438 15.1172V17.8594ZM94.3672 6L89.4922 18.9609C88.3203 22.0781 86.5547 23.6367 84.1953 23.6367C83.2969 23.6367 82.5586 23.5352 81.9805 23.332V20.3789C82.4727 20.668 83.0078 20.8125 83.5859 20.8125C84.5391 20.8125 85.2031 20.3633 85.5781 19.4648L86.2109 17.9766L81.3359 6H85.4375L87.6758 13.3008C87.8164 13.7539 87.9258 14.2891 88.0039 14.9062H88.0508C88.1211 14.4531 88.25 13.9258 88.4375 13.3242L90.6992 6H94.3672Z" fill="white"/>
</svg>
