<svg width="115" height="63" viewBox="0 0 115 63" fill="none" xmlns="http://www.w3.org/2000/svg">
<path d="M25.8984 1.79492L21.0869 20H16.542L13.5205 8.32031C13.3597 7.71094 13.2624 7.02962 13.2285 6.27637H13.1777C13.1016 7.10579 12.9915 7.78711 12.8477 8.32031L9.75 20H5.01465L0.228516 1.79492H4.70996L7.27441 13.9189C7.38444 14.4352 7.46484 15.1292 7.51562 16.001H7.5918C7.62565 15.3493 7.74837 14.6383 7.95996 13.8682L11.2607 1.79492H15.6533L18.6367 14.0205C18.7467 14.4691 18.8441 15.1208 18.9287 15.9756H18.9795C19.0133 15.307 19.1022 14.6299 19.2461 13.9443L21.7598 1.79492H25.8984ZM40.2949 20H36.2959V12.6113C36.2959 10.707 35.6019 9.75488 34.2139 9.75488C33.5029 9.75488 32.9274 10.0215 32.4873 10.5547C32.0472 11.0879 31.8271 11.765 31.8271 12.5859V20H27.8154V0.753906H31.8271V8.92969H31.8779C32.8597 7.43164 34.1927 6.68262 35.877 6.68262C38.8223 6.68262 40.2949 8.45996 40.2949 12.0146V20ZM54.2979 20H50.502V18.1338H50.4512C49.5794 19.5895 48.2887 20.3174 46.5791 20.3174C45.318 20.3174 44.3236 19.9619 43.5957 19.251C42.8763 18.5316 42.5166 17.5752 42.5166 16.3818C42.5166 13.8597 44.0104 12.404 46.998 12.0146L50.5273 11.5449C50.5273 10.123 49.7572 9.41211 48.2168 9.41211C46.668 9.41211 45.1953 9.87337 43.7988 10.7959V7.77441C44.3574 7.48665 45.1191 7.23275 46.084 7.0127C47.0573 6.79264 47.9417 6.68262 48.7373 6.68262C52.4443 6.68262 54.2979 8.5319 54.2979 12.2305V20ZM50.5273 14.7188V13.8428L48.166 14.1475C46.8626 14.3167 46.2109 14.9049 46.2109 15.9121C46.2109 16.3691 46.3675 16.7458 46.6807 17.042C47.0023 17.3298 47.4339 17.4736 47.9756 17.4736C48.7288 17.4736 49.3424 17.2155 49.8164 16.6992C50.2904 16.1745 50.5273 15.5143 50.5273 14.7188ZM65.3301 19.8477C64.7376 20.1608 63.8447 20.3174 62.6514 20.3174C59.8245 20.3174 58.4111 18.849 58.4111 15.9121V9.95801H56.3037V7H58.4111V4.19434L62.4102 3.05176V7H65.3301V9.95801H62.4102V15.2139C62.4102 16.568 62.9476 17.2451 64.0225 17.2451C64.4456 17.2451 64.8815 17.1224 65.3301 16.877V19.8477ZM76.8193 4.94336C76.1423 4.94336 75.5879 4.74447 75.1562 4.34668C74.7246 3.94043 74.5088 3.44531 74.5088 2.86133C74.5088 2.26042 74.7246 1.76953 75.1562 1.38867C75.5879 1.00781 76.1423 0.817383 76.8193 0.817383C77.5049 0.817383 78.0592 1.00781 78.4824 1.38867C78.9141 1.76953 79.1299 2.26042 79.1299 2.86133C79.1299 3.4707 78.9141 3.97005 78.4824 4.35938C78.0592 4.7487 77.5049 4.94336 76.8193 4.94336ZM78.7998 20H74.7881V7H78.7998V20ZM81.3262 19.6572V16.4072C81.9863 16.805 82.6423 17.1012 83.2939 17.2959C83.9541 17.4906 84.5762 17.5879 85.1602 17.5879C85.8711 17.5879 86.4297 17.4906 86.8359 17.2959C87.2507 17.1012 87.458 16.805 87.458 16.4072C87.458 16.1533 87.3649 15.9417 87.1787 15.7725C86.9925 15.6032 86.7513 15.4551 86.4551 15.3281C86.1673 15.2012 85.8499 15.0869 85.5029 14.9854C85.1559 14.8838 84.8216 14.7695 84.5 14.6426C83.9837 14.4479 83.5267 14.2406 83.1289 14.0205C82.7396 13.792 82.4095 13.5296 82.1387 13.2334C81.8763 12.9372 81.6732 12.5944 81.5293 12.2051C81.3939 11.8158 81.3262 11.3545 81.3262 10.8213C81.3262 10.0934 81.4827 9.46712 81.7959 8.94238C82.1175 8.41764 82.5407 7.99023 83.0654 7.66016C83.5986 7.32161 84.2038 7.07617 84.8809 6.92383C85.5664 6.76302 86.2773 6.68262 87.0137 6.68262C87.5892 6.68262 88.1732 6.72917 88.7656 6.82227C89.3581 6.9069 89.9421 7.03385 90.5176 7.20312V10.3008C90.0098 10.0046 89.4639 9.78451 88.8799 9.64062C88.3044 9.48828 87.7373 9.41211 87.1787 9.41211C86.9163 9.41211 86.6667 9.4375 86.4297 9.48828C86.2012 9.5306 85.998 9.59831 85.8203 9.69141C85.6426 9.77604 85.5029 9.8903 85.4014 10.0342C85.2998 10.1696 85.249 10.3262 85.249 10.5039C85.249 10.7409 85.3252 10.944 85.4775 11.1133C85.6299 11.2826 85.8288 11.4307 86.0742 11.5576C86.3197 11.6761 86.5905 11.7861 86.8867 11.8877C87.1914 11.9808 87.4919 12.0781 87.7881 12.1797C88.3213 12.3659 88.8037 12.569 89.2354 12.7891C89.667 13.0091 90.0352 13.2673 90.3398 13.5635C90.653 13.8597 90.89 14.2067 91.0508 14.6045C91.2201 15.0023 91.3047 15.4762 91.3047 16.0264C91.3047 16.7965 91.1354 17.4567 90.7969 18.0068C90.4668 18.5485 90.0225 18.9928 89.4639 19.3398C88.9137 19.6784 88.2747 19.9238 87.5469 20.0762C86.8275 20.237 86.0785 20.3174 85.2998 20.3174C83.8695 20.3174 82.5449 20.0973 81.3262 19.6572ZM1.24414 55.3018V51.2393C1.98047 51.8571 2.78027 52.3226 3.64355 52.6357C4.50684 52.9404 5.37858 53.0928 6.25879 53.0928C6.77507 53.0928 7.22363 53.0462 7.60449 52.9531C7.99382 52.86 8.31543 52.7331 8.56934 52.5723C8.83171 52.403 9.02637 52.2083 9.15332 51.9883C9.28027 51.7598 9.34375 51.5143 9.34375 51.252C9.34375 50.8965 9.24219 50.5791 9.03906 50.2998C8.83594 50.0205 8.55664 49.7624 8.20117 49.5254C7.85417 49.2884 7.43945 49.0599 6.95703 48.8398C6.47461 48.6198 5.9541 48.3955 5.39551 48.167C3.97363 47.5745 2.91146 46.8509 2.20898 45.9961C1.51497 45.1413 1.16797 44.1087 1.16797 42.8984C1.16797 41.9505 1.3584 41.138 1.73926 40.4609C2.12012 39.7754 2.63639 39.2126 3.28809 38.7725C3.94824 38.3324 4.70996 38.0107 5.57324 37.8076C6.43652 37.596 7.35059 37.4902 8.31543 37.4902C9.26335 37.4902 10.1012 37.5495 10.8291 37.668C11.5654 37.778 12.2425 37.9515 12.8604 38.1885V41.9844C12.5557 41.7728 12.2214 41.5866 11.8574 41.4258C11.502 41.265 11.1338 41.1338 10.7529 41.0322C10.3721 40.9222 9.99121 40.8418 9.61035 40.791C9.23796 40.7402 8.88249 40.7148 8.54395 40.7148C8.07845 40.7148 7.65527 40.7614 7.27441 40.8545C6.89355 40.9391 6.57194 41.0618 6.30957 41.2227C6.0472 41.3835 5.84408 41.5781 5.7002 41.8066C5.55632 42.0267 5.48438 42.2764 5.48438 42.5557C5.48438 42.8604 5.56478 43.1354 5.72559 43.3809C5.88639 43.6178 6.11491 43.8464 6.41113 44.0664C6.70736 44.278 7.06706 44.4896 7.49023 44.7012C7.91341 44.9043 8.3916 45.1159 8.9248 45.3359C9.65267 45.6406 10.3044 45.9665 10.8799 46.3135C11.4639 46.652 11.9632 47.0371 12.3779 47.4688C12.7926 47.9004 13.11 48.3955 13.3301 48.9541C13.5501 49.5042 13.6602 50.1475 13.6602 50.8838C13.6602 51.8994 13.4655 52.7542 13.0762 53.4482C12.6953 54.1338 12.1748 54.6924 11.5146 55.124C10.8545 55.5472 10.0843 55.8519 9.2041 56.0381C8.33236 56.2243 7.40983 56.3174 6.43652 56.3174C5.43783 56.3174 4.48568 56.2327 3.58008 56.0635C2.68294 55.8942 1.9043 55.6403 1.24414 55.3018ZM22.458 56.3174C20.2913 56.3174 18.5859 55.7122 17.3418 54.502C16.1061 53.2832 15.4883 51.6328 15.4883 49.5508C15.4883 47.401 16.1315 45.721 17.418 44.5107C18.7044 43.292 20.4437 42.6826 22.6357 42.6826C24.7939 42.6826 26.4867 43.292 27.7139 44.5107C28.9411 45.721 29.5547 47.3249 29.5547 49.3223C29.5547 51.4805 28.9199 53.1859 27.6504 54.4385C26.3893 55.6911 24.6585 56.3174 22.458 56.3174ZM22.5596 45.7549C21.6117 45.7549 20.8753 46.0807 20.3506 46.7324C19.8258 47.3841 19.5635 48.3066 19.5635 49.5C19.5635 51.9967 20.5706 53.2451 22.585 53.2451C24.5062 53.2451 25.4668 51.9629 25.4668 49.3984C25.4668 46.9694 24.4977 45.7549 22.5596 45.7549ZM42.0088 55.5303C41.1032 56.055 39.7956 56.3174 38.0859 56.3174C36.0885 56.3174 34.472 55.7122 33.2363 54.502C32.0007 53.2917 31.3828 51.7301 31.3828 49.8174C31.3828 47.6084 32.043 45.8691 33.3633 44.5996C34.6921 43.3216 36.4652 42.6826 38.6826 42.6826C40.2145 42.6826 41.3232 42.8857 42.0088 43.292V46.6943C41.1709 46.068 40.2357 45.7549 39.2031 45.7549C38.0521 45.7549 37.138 46.0934 36.4609 46.7705C35.7923 47.4391 35.458 48.3659 35.458 49.5508C35.458 50.7018 35.7796 51.6074 36.4229 52.2676C37.0661 52.9193 37.9505 53.2451 39.0762 53.2451C40.0749 53.2451 41.0524 52.932 42.0088 52.3057V55.5303ZM46.6807 40.9434C46.0036 40.9434 45.4492 40.7445 45.0176 40.3467C44.5859 39.9404 44.3701 39.4453 44.3701 38.8613C44.3701 38.2604 44.5859 37.7695 45.0176 37.3887C45.4492 37.0078 46.0036 36.8174 46.6807 36.8174C47.3662 36.8174 47.9206 37.0078 48.3438 37.3887C48.7754 37.7695 48.9912 38.2604 48.9912 38.8613C48.9912 39.4707 48.7754 39.9701 48.3438 40.3594C47.9206 40.7487 47.3662 40.9434 46.6807 40.9434ZM48.6611 56H44.6494V43H48.6611V56ZM62.8545 56H59.0586V54.1338H59.0078C58.1361 55.5895 56.8454 56.3174 55.1357 56.3174C53.8747 56.3174 52.8802 55.9619 52.1523 55.251C51.4329 54.5316 51.0732 53.5752 51.0732 52.3818C51.0732 49.8597 52.5671 48.404 55.5547 48.0146L59.084 47.5449C59.084 46.123 58.3138 45.4121 56.7734 45.4121C55.2246 45.4121 53.752 45.8734 52.3555 46.7959V43.7744C52.9141 43.4867 53.6758 43.2327 54.6406 43.0127C55.6139 42.7926 56.4984 42.6826 57.2939 42.6826C61.001 42.6826 62.8545 44.5319 62.8545 48.2305V56ZM59.084 50.7188V49.8428L56.7227 50.1475C55.4193 50.3167 54.7676 50.9049 54.7676 51.9121C54.7676 52.3691 54.9242 52.7458 55.2373 53.042C55.5589 53.3298 55.9906 53.4736 56.5322 53.4736C57.2855 53.4736 57.8991 53.2155 58.373 52.6992C58.847 52.1745 59.084 51.5143 59.084 50.7188ZM70.04 56H66.0283V36.7539H70.04V56ZM75.4482 40.9434C74.7712 40.9434 74.2168 40.7445 73.7852 40.3467C73.3535 39.9404 73.1377 39.4453 73.1377 38.8613C73.1377 38.2604 73.3535 37.7695 73.7852 37.3887C74.2168 37.0078 74.7712 36.8174 75.4482 36.8174C76.1338 36.8174 76.6882 37.0078 77.1113 37.3887C77.543 37.7695 77.7588 38.2604 77.7588 38.8613C77.7588 39.4707 77.543 39.9701 77.1113 40.3594C76.6882 40.7487 76.1338 40.9434 75.4482 40.9434ZM77.4287 56H73.417V43H77.4287V56ZM88.6641 55.8477C88.0716 56.1608 87.1787 56.3174 85.9854 56.3174C83.1585 56.3174 81.7451 54.849 81.7451 51.9121V45.958H79.6377V43H81.7451V40.1943L85.7441 39.0518V43H88.6641V45.958H85.7441V51.2139C85.7441 52.568 86.2816 53.2451 87.3564 53.2451C87.7796 53.2451 88.2155 53.1224 88.6641 52.877V55.8477ZM103.314 43L98.0332 57.041C96.7637 60.418 94.8509 62.1064 92.2949 62.1064C91.3216 62.1064 90.5218 61.9964 89.8955 61.7764V58.5771C90.4287 58.8903 91.0085 59.0469 91.6348 59.0469C92.6673 59.0469 93.3867 58.5602 93.793 57.5869L94.4785 55.9746L89.1973 43H93.6406L96.0654 50.9092C96.2178 51.4001 96.3363 51.9798 96.4209 52.6484H96.4717C96.5479 52.1576 96.6875 51.5863 96.8906 50.9346L99.3408 43H103.314ZM106.603 50.7314C106.518 50.5114 106.45 50.266 106.399 49.9951C106.357 49.7158 106.336 49.4535 106.336 49.208C106.336 48.8187 106.374 48.4632 106.45 48.1416C106.526 47.82 106.641 47.5195 106.793 47.2402C106.945 46.9525 107.136 46.6816 107.364 46.4277C107.593 46.1654 107.859 45.9072 108.164 45.6533C108.486 45.3825 108.765 45.1328 109.002 44.9043C109.247 44.6673 109.455 44.4346 109.624 44.2061C109.793 43.9691 109.92 43.7279 110.005 43.4824C110.09 43.2285 110.132 42.9492 110.132 42.6445C110.132 42.3822 110.085 42.141 109.992 41.9209C109.899 41.6924 109.764 41.4977 109.586 41.3369C109.417 41.1761 109.205 41.0492 108.951 40.9561C108.706 40.863 108.431 40.8164 108.126 40.8164C107.466 40.8164 106.78 40.9561 106.069 41.2354C105.358 41.5062 104.686 41.9209 104.051 42.4795V38.6582C104.702 38.2689 105.413 37.9769 106.184 37.7822C106.954 37.5876 107.749 37.4902 108.57 37.4902C109.357 37.4902 110.09 37.5791 110.767 37.7568C111.444 37.9261 112.032 38.1969 112.531 38.5693C113.039 38.9417 113.433 39.4199 113.712 40.0039C114 40.5794 114.144 41.2734 114.144 42.0859C114.144 42.6022 114.084 43.0719 113.966 43.4951C113.847 43.9098 113.674 44.3034 113.445 44.6758C113.217 45.0482 112.933 45.4079 112.595 45.7549C112.256 46.0934 111.867 46.4447 111.427 46.8086C111.131 47.054 110.868 47.2826 110.64 47.4941C110.42 47.7057 110.233 47.9173 110.081 48.1289C109.937 48.332 109.827 48.5521 109.751 48.7891C109.675 49.0176 109.637 49.2799 109.637 49.5762C109.637 49.7793 109.662 49.9867 109.713 50.1982C109.772 50.4098 109.848 50.5876 109.941 50.7314H106.603ZM108.456 56.292C107.779 56.292 107.216 56.0889 106.768 55.6826C106.319 55.2594 106.095 54.7601 106.095 54.1846C106.095 53.5921 106.319 53.097 106.768 52.6992C107.216 52.3014 107.779 52.1025 108.456 52.1025C109.125 52.1025 109.679 52.3014 110.119 52.6992C110.559 53.0885 110.779 53.5837 110.779 54.1846C110.779 54.7939 110.563 55.2975 110.132 55.6953C109.692 56.0931 109.133 56.292 108.456 56.292Z" fill="white"/>
</svg>
